<?xml version="1.0" encoding="utf-8"?>
<!-- Generator: Adobe Illustrator 15.0.0, SVG Export Plug-In . SVG Version: 6.00 Build 0)  -->
<!DOCTYPE svg PUBLIC "-//W3C//DTD SVG 1.1//EN" "http://www.w3.org/Graphics/SVG/1.1/DTD/svg11.dtd">
<svg version="1.1" id="Layer_1" xmlns="http://www.w3.org/2000/svg" xmlns:xlink="http://www.w3.org/1999/xlink" x="0px" y="0px"
	 width="156px" height="39px" viewBox="0 0 156 39" enable-background="new 0 0 156 39" xml:space="preserve">
<path fill="#3C4344" d="M95.49,9.755c0-0.438-0.318-0.671-0.657-0.698c-2.692-3.909-7.868-0.338-11.508-0.605
	c-0.472-0.035-0.703,0.319-0.697,0.686c-0.104,0.114-0.172,0.272-0.172,0.473V27.57c0,0.404,0.271,0.635,0.58,0.688
	c-0.313,0.128-0.622,0.266-0.925,0.41c-0.541-5.51,0.188-11.074,0.199-16.595c0.002-0.934-1.447-0.934-1.449,0
	c-0.012,6.074-0.82,12.153-0.004,18.206c0.547-0.193,1.135-0.29,1.77-0.254c3.204-1.592,7.216-2.188,10.325-0.092
	c0.776,0.521,1.502-0.731,0.731-1.252c-2.951-1.988-6.644-1.861-9.896-0.711c0.051-0.076,0.088-0.166,0.105-0.271
	c3.211-1.832,7.187-2.223,10.215,0.234c0.613,0.498,1.451-0.168,1.238-0.74C95.35,21.381,95.488,15.568,95.49,9.755z M93.9,26.061
	c-3.103-1.81-6.778-1.601-9.996-0.009V9.915c1.671-0.022,3.348-0.622,4.959-0.967c1.675-0.359,3.787-0.645,4.843,1.027
	c0.092,0.145,0.209,0.238,0.334,0.289C94.032,15.53,93.919,20.795,93.9,26.061z"/>
<path fill="#3C4344" d="M95.925,27.339c-0.215,0.572,0.624,1.238,1.236,0.742c3.028-2.458,7.005-2.069,10.217-0.235
	c0.019,0.104,0.054,0.192,0.104,0.271c-3.256-1.15-6.944-1.277-9.896,0.712c-0.771,0.521-0.046,1.772,0.729,1.251
	c3.111-2.1,7.123-1.499,10.326,0.092c0.635-0.036,1.227,0.062,1.771,0.255c0.814-6.053,0.008-12.133-0.005-18.208
	c-0.003-0.934-1.45-0.934-1.448,0c0.014,5.521,0.74,11.086,0.199,16.598c-0.305-0.146-0.611-0.28-0.928-0.409
	c0.311-0.056,0.582-0.283,0.582-0.688V9.755c0-0.201-0.066-0.359-0.174-0.474c0.008-0.367-0.226-0.72-0.695-0.685
	c-3.643,0.268-8.813-3.303-11.51,0.606C96.1,9.229,95.779,9.461,95.779,9.9C95.782,15.713,95.921,21.525,95.925,27.339z
	 M97.229,10.409c0.127-0.052,0.244-0.144,0.334-0.289c1.061-1.672,3.17-1.386,4.848-1.028c1.607,0.345,3.285,0.944,4.959,0.966
	v16.137c-3.221-1.592-6.896-1.799-9.996,0.011C97.352,20.939,97.238,15.675,97.229,10.409z"/>
<text transform="matrix(1 0 0 1 0 29.9717)" fill="#3C4344" font-family="'HelveticaNeue'" font-size="34.9727">textb</text>
<text transform="matrix(1 0 0 1 110.4941 29.9717)" fill="#3C4344" font-family="'HelveticaNeue'" font-size="34.9727">ks</text>
</svg>
